<?xml version="1.0" encoding="UTF-8" standalone="no"?>
<svg
   xmlns:dc="http://purl.org/dc/elements/1.1/"
   xmlns:cc="http://creativecommons.org/ns#"
   xmlns:rdf="http://www.w3.org/1999/02/22-rdf-syntax-ns#"
   xmlns:svg="http://www.w3.org/2000/svg"
   xmlns="http://www.w3.org/2000/svg"
   xmlns:sodipodi="http://sodipodi.sourceforge.net/DTD/sodipodi-0.dtd"
   xmlns:inkscape="http://www.inkscape.org/namespaces/inkscape"
   version="1.1"
   x="0px"
   y="0px"
   viewBox="0 0 300 300"
   enable-background="new 0 0 72 72"
   xml:space="preserve"
   id="svg2"
   inkscape:version="0.91 r13725"
   sodipodi:docname="icon.svg"
   width="300"
   height="300"><metadata
     id="metadata20"><rdf:RDF><cc:Work
         rdf:about=""><dc:format>image/svg+xml</dc:format><dc:type
           rdf:resource="http://purl.org/dc/dcmitype/StillImage" /><dc:title></dc:title></cc:Work></rdf:RDF></metadata><defs
     id="defs18" /><sodipodi:namedview
     pagecolor="#ffffff"
     bordercolor="#666666"
     borderopacity="1"
     objecttolerance="10"
     gridtolerance="10"
     guidetolerance="10"
     inkscape:pageopacity="0"
     inkscape:pageshadow="2"
     inkscape:window-width="2497"
     inkscape:window-height="1417"
     id="namedview16"
     showgrid="false"
     inkscape:zoom="2.6222222"
     inkscape:cx="36"
     inkscape:cy="151.77966"
     inkscape:window-x="1975"
     inkscape:window-y="-8"
     inkscape:window-maximized="1"
     inkscape:current-layer="layer2" /><g
     inkscape:groupmode="layer"
     id="layer2"
     inkscape:label="Background"
     style="display:inline"><rect
       style="fill:#000064;fill-opacity:1;stroke:#0000ff;stroke-width:0;stroke-miterlimit:0;stroke-dasharray:none;stroke-opacity:1"
       id="rect4156"
       width="300"
       height="300"
       x="5.072241e-006"
       y="5.2677487e-006" /></g><g
     inkscape:groupmode="layer"
     id="layer1"
     inkscape:label="Needle"
     style="display:inline"><g
       style="fill:#ffffff"
       id="g4"
       transform="matrix(3.4284586,0,0,3.4284586,26.494983,26.406092)"><path
         d="m 68.9,21.5 c 3.2,-2.8 2.8,-7.5 -1.3,-9.8 -2.9,-1.6 -6.7,-1.2 -9.2,0.9 l -4.9,4.2 C 53.3,17 53,17 52.8,16.8 52.5,16.3 52.3,15.8 52,15.3 51,13.3 50,11.3 49.5,9.2 49.1,7.7 48.9,5.5 49.8,3.5 50.2,2.6 49.7,1.6 48.7,1.2 47.6,0.8 46.4,1.3 46,2.2 c -1,2.2 -1.2,4.9 -0.5,7.7 0.6,2.4 1.7,4.6 2.7,6.8 0.4,0.9 0.9,1.8 1.5,2.8 0.2,0.2 0.1,0.6 -0.1,0.8 L 43,26 c 0,0 0,0 0,0.1 0,0 0,0 -0.1,0 l -41.4,42 c -0.7,0.7 -0.6,1.8 0.1,2.4 0.8,0.7 2,0.7 2.8,0.1 L 53.3,34.9 c 0,0 0,0 0.1,-0.1 0,0 0.1,0 0.1,0 L 68.9,21.5 Z m -16.5,9.1 c -0.2,0.2 -0.6,0.2 -0.8,0 l -3.7,-3.2 c -0.2,-0.2 -0.2,-0.5 0,-0.7 l 4.5,-3.9 c 0.2,-0.1 0.5,-0.1 0.6,0 0.3,0.3 0.5,0.6 0.7,0.9 0.1,0.2 0.2,0.3 0.4,0.4 0.6,0.5 1.6,0.7 2.4,0.3 1,-0.5 1.4,-1.5 0.9,-2.4 -0.4,-0.6 -0.8,-1.1 -1.3,-1.6 -0.3,-0.3 -0.2,-0.6 0,-0.9 L 61.4,15 c 1.4,-1.2 3.9,-1.1 5,0.5 0.8,1.1 0.5,2.5 -0.5,3.4 L 52.4,30.6 Z"
         id="path6"
         inkscape:connector-curvature="0"
         style="fill:#ffffff" /><g
         id="g8"
         style="fill:#ffffff"><path
           d="m 34.3,67.6 c -0.3,-0.2 -0.5,-0.5 -0.5,-0.9 -0.3,-1 0.4,-1.9 1.5,-2.1 5.4,-1.1 10.6,-3.6 15.1,-7.3 4,-3.3 7.4,-7.5 10.1,-12.5 2.7,-5.1 3.4,-9.2 2.3,-12.6 -0.3,-0.9 0.3,-1.9 1.4,-2.2 1.1,-0.3 2.2,0.3 2.6,1.2 1.4,4.3 0.6,9.2 -2.5,15.1 -2.9,5.4 -6.6,10 -11,13.6 -5,4.1 -10.9,6.9 -17,8.2 -0.8,0.1 -1.5,-0.1 -2,-0.5 z"
           id="path10"
           inkscape:connector-curvature="0"
           style="fill:#ffffff" /></g></g></g></svg>